<?xml version="1.0" standalone="no"?>
<!DOCTYPE svg PUBLIC "-//W3C//DTD SVG 20010904//EN"
 "http://www.w3.org/TR/2001/REC-SVG-20010904/DTD/svg10.dtd">
<svg version="1.0" xmlns="http://www.w3.org/2000/svg"
 width="400.000000pt" height="400.000000pt" viewBox="0 0 400.000000 400.000000"
 preserveAspectRatio="xMidYMid meet">
<metadata>
Created by potrace 1.11, written by Peter Selinger 2001-2013
</metadata>
<g transform="translate(0.000000,400.000000) scale(0.100000,-0.100000)"
fill="#000000" stroke="none">
<path d="M942 3405 c-17 -14 -34 -43 -42 -69 -11 -39 -10 -49 9 -91 12 -28 48
-73 86 -111 l66 -63 -38 -7 c-117 -21 -85 -123 50 -161 l58 -16 -30 -13 c-42
-18 -54 -46 -43 -100 l10 -44 -53 6 c-62 8 -95 -6 -95 -41 0 -30 43 -65 81
-65 15 0 31 -4 34 -10 3 -5 -1 -10 -11 -10 -9 0 -32 -9 -50 -21 -38 -23 -46
-65 -18 -93 20 -20 96 -20 184 -1 36 8 74 14 85 15 18 0 17 -2 -5 -15 -14 -8
-32 -17 -40 -21 -27 -13 -80 -68 -80 -84 0 -26 21 -40 61 -40 35 0 37 -2 49
-44 8 -30 28 -61 62 -94 l50 -49 -31 -11 c-65 -23 -50 -81 28 -109 47 -16 49
-18 29 -31 -17 -12 -19 -22 -15 -58 l5 -44 -39 6 c-73 12 -98 -45 -32 -73 l37
-15 -26 -14 c-29 -15 -40 -36 -31 -60 12 -32 57 -34 178 -8 28 6 27 4 -17 -31
-33 -26 -45 -42 -41 -53 17 -45 68 -42 140 6 121 80 111 77 160 64 81 -22 117
-53 158 -139 21 -43 41 -91 46 -108 4 -16 21 -75 37 -130 41 -137 74 -299 75
-365 0 -30 -5 -127 -11 -214 -7 -88 -11 -161 -9 -162 1 -2 27 -4 57 -5 30 -1
64 -6 74 -12 19 -9 19 -5 10 174 -12 249 -6 684 11 779 8 41 16 89 20 105 22
121 81 335 97 355 19 23 19 24 51 5 37 -21 70 -57 93 -100 49 -90 127 -152
159 -125 21 18 19 57 -6 97 -12 19 -19 37 -15 40 3 3 36 -8 73 -24 83 -37 136
-48 163 -33 36 19 21 77 -28 105 -27 16 -27 16 18 10 88 -10 129 43 60 77 -19
10 -50 18 -69 18 -32 0 -33 1 -18 18 23 25 21 38 -5 56 -22 15 -21 16 25 16
37 0 53 5 72 24 13 13 36 27 52 30 95 24 98 104 4 122 -32 7 -31 8 41 35 119
46 154 100 114 177 -19 36 -66 60 -137 68 -49 5 -58 3 -96 -25 -52 -38 -57
-38 -49 -6 5 18 2 27 -10 32 -23 9 -114 -14 -138 -35 -39 -33 48 74 100 123
64 61 94 109 94 153 0 46 -34 61 -90 39 -22 -8 -40 -14 -40 -11 0 2 14 32 32
66 43 85 46 159 6 193 -59 51 -158 38 -198 -27 -26 -43 -60 -151 -60 -192 0
-46 -10 -51 -29 -13 -9 17 -29 38 -44 45 -24 12 -32 11 -52 -2 -43 -28 -43
-100 0 -221 5 -14 1 -12 -15 8 -18 22 -30 27 -65 27 -36 0 -48 -5 -68 -30
l-25 -30 -17 45 c-22 57 -47 79 -79 71 -32 -8 -43 -45 -28 -94 14 -45 10 -50
-24 -23 -33 26 -89 28 -102 4 -8 -14 -12 -11 -27 18 -32 61 -66 66 -96 14 -12
-19 -24 -35 -28 -35 -4 0 -13 16 -19 36 -13 44 -9 51 65 119 29 26 62 62 73
80 26 43 26 91 0 105 -29 16 -54 5 -101 -43 l-41 -42 5 30 c3 17 13 71 22 121
15 79 16 94 4 120 -16 33 -51 43 -76 22 -9 -7 -24 -31 -34 -53 l-19 -40 0 45
c0 48 -30 110 -53 110 -30 0 -47 -35 -47 -98 l0 -62 -25 12 c-38 17 -49 -1
-55 -90 l-5 -77 -19 40 c-10 22 -29 82 -42 134 -28 108 -49 149 -87 171 -42
24 -59 8 -84 -79 -2 -10 -11 -3 -26 19 -12 18 -42 55 -66 82 -39 43 -48 48
-87 48 -31 0 -51 -7 -72 -25z m974 -810 c20 -31 12 -78 -14 -73 -13 2 -18 15
-20 51 -3 53 9 61 34 22z m-430 -130 c9 -13 39 -39 67 -56 51 -31 51 -32 27
-41 -14 -5 -31 -16 -37 -25 -11 -15 -15 -14 -34 10 -33 42 -79 30 -79 -20 0
-13 -4 -23 -10 -23 -5 0 -10 4 -10 9 0 4 -18 29 -40 54 l-41 46 43 29 c72 49
91 52 114 17z m671 -457 c-61 -259 -63 -263 -92 -124 -16 76 -19 129 -8 139 3
4 29 7 56 7 46 0 49 -1 44 -22z m-298 -125 c32 -109 88 -348 111 -481 22 -126
23 -176 1 -77 -22 96 -61 206 -121 335 -90 192 -102 290 -36 290 22 0 27 -8
45 -67z m138 -30 c17 -21 33 -47 37 -58 12 -31 26 -244 19 -297 -5 -47 -23
-68 -23 -28 0 16 -55 300 -77 398 -8 33 12 27 44 -15z"/>
</g>
</svg>
